<?xml version="1.0" encoding="UTF-8"?>
<svg id="Layer_1" data-name="Layer 1" xmlns="http://www.w3.org/2000/svg" width="620" height="840" viewBox="0 0 620 840">
  <defs>
    <style>
      .cls-1 {
        fill: #dbdbdb;
      }

      .cls-2 {
        fill: #b2b2b2;
      }

      .cls-3 {
        fill: #c9c9c9;
      }

      .cls-4 {
        fill: gray;
      }

      .cls-5 {
        fill: #a3a3a3;
      }

      .cls-6 {
        fill: #e5e5e5;
      }

      .cls-7 {
        fill: #f1f1f1;
      }

      .cls-8 {
        fill: #cecece;
      }
    </style>
  </defs>
  <path class="cls-6" d="m599.67,719.32c-.25-31.75-22.22-35.11-31.56-51.11-9.33-16-15.33-43.11-15.33-55.11s-225.56,3.56-225.56,3.56l-16.22,4.34-16.22-4.34s-225.56-15.56-225.56-3.56-6,39.11-15.33,55.11-31.31,19.36-31.56,51.11c-.33,43.08,107.38,96.8,288.44,96.89h0c.07,0,.15,0,.22,0s.15,0,.22,0h0c181.06-.09,288.78-53.81,288.44-96.89Z"/>
  <path class="cls-1" d="m599.67,719.32c-.25-31.75-22.22-35.11-31.56-51.11-9.33-16-15.33-43.11-15.33-55.11,0-5.29-43.78-5.22-92.76-3.5,5.17,68.06-.55,107.55,7.93,130.17,4.28,11.4,10.81,32.97,19.18,55.79,72.59-19.61,112.75-49.91,112.55-76.23Z"/>
  <path class="cls-3" d="m311.44,563.1c-142.76-23.01-242.67,24.83-242.67,38v12c0,45.66,108.35,82.67,242,82.67s242-37.01,242-82.67v-12c0-10.5-100.99-60.62-241.33-38Z"/>
  <path class="cls-2" d="m311.44,551.1c-161.33-26-242.67,32-242.67,50,0,45.66,108.35,82.67,242,82.67s242-37.01,242-82.67c0-18-80-76-241.33-50Z"/>
  <path class="cls-4" d="m311.52,551.1c-121.72-19.62-197.89,8.58-227.96,31.34,23.72,32.45,116.55,56.66,227.46,56.66s203.62-24.18,227.42-56.6c-29.64-22.77-105.08-51.04-226.91-31.4Z"/>
  <path class="cls-2" d="m501.44,391.76c-50.67-68-106.67-70.67-112.67-74.67s-10.67-13-10.67-30.17c0-10.24-20.11,9.4-67.11,11.4-44-1.67-67.56-21.65-67.56-11.4,0,17.17-4.67,26.17-10.67,30.17s-62,6.67-112.67,74.67c-50.67,68-51.33,147-51.33,147,0,6.24,2.14,12.31,6.2,18.14.9,1.3,1.9,2.58,2.98,3.85,1.09,1.27,2.27,2.53,3.53,3.77,29.81,29.24,108.95,50.93,204.54,54.15,8.14.27,16.39.41,24.74.41s16.61-.14,24.74-.41c95.59-3.22,174.73-24.91,204.54-54.15,1.27-1.24,2.45-2.5,3.53-3.77,1.09-1.27,2.08-2.55,2.98-3.85,4.05-5.83,6.2-11.9,6.2-18.14,0,0-.67-79-51.33-147Z"/>
  <path class="cls-5" d="m388.78,317.1c-6-4-10.67-13-10.67-30.17,0-3.19-3.61-5.19-9.47-6.34l-32.69,28.84c13,43.33,37.98,52.85,52.67,71,28.33,35,63.33,140.33,70.33,216.33.17,1.82.32,3.61.47,5.4,36.94-9.56,65.32-22.6,80.65-37.63,1.27-1.24,2.45-2.5,3.53-3.77,1.09-1.27,2.08-2.55,2.98-3.85,4.05-5.83,6.2-11.9,6.2-18.14,0,0-.67-79-51.33-147-50.67-68-106.67-70.67-112.67-74.67Z"/>
  <path class="cls-7" d="m111.11,753.55c-9.2.93-16.95-4.76-24.28-8.33-8.72-4.25-17.09-9.48-24.92-15.22-6.27-4.6-10.05-12.24-1.07-19.95,8.26-7.09,13.62-16.45,17.61-26.53,2.47-6.23,11.73-7.62,17.99-3.91,8.62,5.1,17.85,9.21,26.96,13.46,3.86,1.8,8.01,3,12.1,4.24,8.58,2.6,9.55,11.47,7,17.79-4.89,12.14-11.71,23.02-20.92,32.24-2.77,2.77-6.38,5.81-10.48,6.23Z"/>
  <path class="cls-8" d="m143.1,413.71c-9.57,11.77-14.59,26.81-20.72,40.76-5.36,12.2-9.71,24.9-13.66,37.64-3.08,9.91-4.9,20.2-7.21,30.34-3.23,14.23-2.32,17.68,9.5,23.76,15.69,8.07,32.53,12.8,50.28,13.89,6.32.21,7.83-1.41,8.08-7.67.57-14.75.5-29.58,2.21-44.2,1.73-14.84,3.52-30,8.32-44.1,6.88-20.23,23.1-59.86,32.42-79.08,4.77-9.85,11.6-18.6,17.12-28.05,1-1.71,1.27-4.82.36-6.46-1.48-2.69-4.31-3.89-7.73-2.37-3.47,1.55-7.3,2.33-10.63,4.13-35.06,19.02-53.85,43.59-68.34,61.42Z"/>
  <path class="cls-2" d="m329.22,265.29v19.58c0,3.01-8.95,5.44-20,5.44s-20-2.44-20-5.44v-19.26c-26.61,3-45.78,11.41-45.78,21.32,0,12.43,30.15,22.5,67.33,22.5s67.33-10.07,67.33-22.5c0-10.29-20.67-18.96-48.89-21.64Z"/>
</svg>