<?xml version="1.0" encoding="UTF-8"?>
<svg id="Layer_1" data-name="Layer 1" xmlns="http://www.w3.org/2000/svg" width="620" height="840" viewBox="0 0 620 840">
  <defs>
    <style>
      .cls-1 {
        fill: #dbdbdb;
      }

      .cls-2 {
        fill: #e5982c;
      }
    </style>
  </defs>
  <path class="cls-1" d="m517.08,344.32c3.47-1.79,6.98-3.49,10.53-5.1.84-.38,1.68-.75,2.52-1.12.42-.18.84-.37,1.26-.55.21-.09.42-.18.63-.27-.44.19,0,0,.19-.08,1.84-.76,3.68-1.5,5.54-2.22,7.28-2.8,14.72-5.2,22.26-7.2,4.29-1.13,8.62-2.13,12.97-3,2.31-.46,3.85-3.34,3.14-5.54-.79-2.46-3.06-3.64-5.54-3.14-15.78,3.16-31.13,8.1-45.85,14.59-4.13,1.82-8.2,3.77-12.21,5.85-2.09,1.08-2.88,4.19-1.61,6.16,1.38,2.14,3.92,2.77,6.16,1.61h0Z"/>
  <path class="cls-1" d="m560.47,460.86c15.01,3.77,30.22,6.6,45.57,8.62,2.34.31,4.6-2.29,4.5-4.5-.12-2.7-1.99-4.17-4.5-4.5.02,0-1.43-.19-.73-.1-.48-.07-.96-.13-1.44-.2-.88-.12-1.76-.25-2.65-.38-1.84-.27-3.68-.55-5.52-.85-3.68-.59-7.35-1.24-11.01-1.94-7.32-1.4-14.6-3.02-21.82-4.83-2.28-.57-4.99.74-5.54,3.14-.53,2.33.7,4.92,3.14,5.54h0Z"/>
  <path class="cls-1" d="m97.24,380.67c-19.73-7.11-39.46-14.22-59.19-21.33-2.22-.8-5.02.9-5.54,3.14-.58,2.53.77,4.68,3.14,5.54,19.73,7.11,39.46,14.22,59.19,21.33,2.22.8,5.02-.9,5.54-3.14.58-2.53-.77-4.68-3.14-5.54h0Z"/>
  <path class="cls-1" d="m152.01,314.27c-.6-.75-1.19-1.5-1.79-2.26-.32-.4-.03-.04.03.04-.14-.18-.27-.35-.4-.53-.36-.47-.72-.94-1.07-1.41-1.15-1.53-2.28-3.08-3.39-4.65-2.3-3.25-4.5-6.57-6.61-9.96-4.13-6.64-7.87-13.53-11.19-20.61-.94-2-1.85-4.02-2.72-6.06-.09-.2-.17-.41-.26-.61l-.17-.41c.14.33.15.35.03.05-.19-.48-.4-.95-.59-1.43-.45-1.09-.88-2.19-1.31-3.29-.85-2.19-3.06-3.94-5.54-3.14-2.13.69-4.06,3.19-3.14,5.54,5.97,15.37,13.65,30.03,23.1,43.55,2.76,3.94,5.66,7.78,8.67,11.54,1.48,1.85,4.84,1.66,6.36,0,1.8-1.96,1.58-4.4,0-6.36h0Z"/>
  <path class="cls-1" d="m441.18,293.17c3.17-7.2,5.59-14.65,7.03-22.4.43-2.31-.63-4.96-3.14-5.54-2.21-.5-5.08.67-5.54,3.14-.67,3.6-1.53,7.16-2.6,10.66-.53,1.72-1.1,3.42-1.72,5.11-.32.87-.66,1.74-1.01,2.61-.15.37-.3.74-.46,1.11.38-.92-.27.6-.34.76-.95,2.15-.7,4.93,1.61,6.16,1.95,1.03,5.14.69,6.16-1.61h0Z"/>
  <path class="cls-2" d="m514.08,341.32c3.47-1.79,6.98-3.49,10.53-5.1.84-.38,1.68-.75,2.52-1.12.42-.18.84-.37,1.26-.55.21-.09.42-.18.63-.27-.44.19,0,0,.19-.08,1.84-.76,3.68-1.5,5.54-2.22,7.28-2.8,14.72-5.2,22.26-7.2,4.29-1.13,8.62-2.13,12.97-3,2.31-.46,3.85-3.34,3.14-5.54-.79-2.46-3.06-3.64-5.54-3.14-15.78,3.16-31.13,8.1-45.85,14.59-4.13,1.82-8.2,3.77-12.21,5.85-2.09,1.08-2.88,4.19-1.61,6.16,1.38,2.14,3.92,2.77,6.16,1.61h0Z"/>
  <path class="cls-2" d="m556.27,458.14c15.01,3.77,30.22,6.6,45.57,8.62,2.34.31,4.6-2.29,4.5-4.5-.12-2.7-1.99-4.17-4.5-4.5.02,0-1.43-.19-.73-.1-.48-.07-.96-.13-1.44-.2-.88-.12-1.76-.25-2.65-.38-1.84-.27-3.68-.55-5.52-.85-3.68-.59-7.35-1.24-11.01-1.94-7.32-1.4-14.6-3.02-21.82-4.83-2.28-.57-4.99.74-5.54,3.14-.53,2.33.7,4.92,3.14,5.54h0Z"/>
  <path class="cls-2" d="m95.86,375.01c-19.73-7.11-39.46-14.22-59.19-21.33-2.22-.8-5.02.9-5.54,3.14-.58,2.53.77,4.68,3.14,5.54,19.73,7.11,39.46,14.22,59.19,21.33,2.22.8,5.02-.9,5.54-3.14.58-2.53-.77-4.68-3.14-5.54h0Z"/>
  <path class="cls-2" d="m150.64,307.19c-.6-.75-1.19-1.5-1.79-2.26-.32-.4-.03-.04.03.04-.14-.18-.27-.35-.4-.53-.36-.47-.72-.94-1.07-1.41-1.15-1.53-2.28-3.08-3.39-4.65-2.3-3.25-4.5-6.57-6.61-9.96-4.13-6.64-7.87-13.53-11.19-20.61-.94-2-1.85-4.02-2.72-6.06-.09-.2-.17-.41-.26-.61l-.17-.41c.14.33.15.35.03.05-.19-.48-.4-.95-.59-1.43-.45-1.09-.88-2.19-1.31-3.29-.85-2.19-3.06-3.94-5.54-3.14-2.13.69-4.06,3.19-3.14,5.54,5.97,15.37,13.65,30.03,23.1,43.55,2.76,3.94,5.66,7.78,8.67,11.54,1.48,1.85,4.84,1.66,6.36,0,1.8-1.96,1.58-4.4,0-6.36h0Z"/>
  <path class="cls-2" d="m441.14,285.96c3.17-7.2,5.59-14.65,7.03-22.4.43-2.31-.63-4.96-3.14-5.54-2.21-.5-5.08.67-5.54,3.14-.67,3.6-1.53,7.16-2.6,10.66-.53,1.72-1.1,3.42-1.72,5.11-.32.87-.66,1.74-1.01,2.61-.15.37-.3.74-.46,1.11.38-.92-.27.6-.34.76-.95,2.15-.7,4.93,1.61,6.16,1.95,1.03,5.14.69,6.16-1.61h0Z"/>
  <path class="cls-1" d="m51.18,491.47c-7.85.13-15.7,1.18-23.31,3.1-2.28.58-3.88,3.26-3.14,5.54.76,2.36,3.09,3.76,5.54,3.14,1.77-.45,3.56-.85,5.35-1.2.9-.17,1.8-.34,2.7-.48.49-.08.97-.16,1.46-.23.2-.03,1.42-.2.48-.07,3.63-.48,7.28-.73,10.94-.79,2.35-.04,4.61-2.04,4.5-4.5-.11-2.4-1.98-4.54-4.5-4.5h0Z"/>
  <path class="cls-2" d="m44.65,494.52c-7.85.13-15.7,1.18-23.31,3.1-2.28.58-3.88,3.26-3.14,5.54.76,2.36,3.09,3.76,5.54,3.14,1.77-.45,3.56-.85,5.35-1.2.9-.17,1.8-.34,2.7-.48.49-.08.97-.16,1.46-.23.2-.03,1.42-.2.48-.07,3.63-.48,7.28-.73,10.94-.79,2.35-.04,4.61-2.04,4.5-4.5-.11-2.4-1.98-4.54-4.5-4.5h0Z"/>
</svg>