<?xml version="1.0" encoding="UTF-8"?>
<svg id="Layer_1" data-name="Layer 1" xmlns="http://www.w3.org/2000/svg" width="620" height="840" viewBox="0 0 620 840">
  <defs>
    <style>
      .cls-1 {
        fill: #cbcbcb;
      }

      .cls-2 {
        fill: #dbdbdb;
      }

      .cls-3 {
        fill: #bfbfbf;
      }

      .cls-4 {
        fill: #b2b2b2;
      }

      .cls-5 {
        fill: #bdbdbd;
      }

      .cls-6 {
        fill: #a3a3a3;
      }
    </style>
  </defs>
  <path class="cls-1" d="m289.22,167.64v177.24c0,3.01,8.95,5.44,20,5.44s20-2.44,20-5.44v-177.24h-40Z"/>
  <path class="cls-3" d="m319.94,349.47c5.57-.97,9.28-2.66,9.28-4.59v-177.24h-9.28v181.83Z"/>
  <path class="cls-4" d="m254.33,143.93v30.12c0,9.55,25.47,17.29,56.89,17.29s56.89-7.74,56.89-17.29v-30.12h-113.78Z"/>
  <path class="cls-6" d="m344,188.19c14.58-3.13,24.12-8.29,24.12-14.13v-30.12h-24.12v44.25Z"/>
  <path class="cls-1" d="m360.75,112.76c-13.97-3.56-31.15-5.67-49.75-5.67s-35.78,2.11-49.75,5.67h-34.92v24c0,16.38,37.91,29.67,84.67,29.67s84.67-13.28,84.67-29.67v-24h-34.92Z"/>
  <path class="cls-5" d="m361.28,160.63c20.86-5.4,34.39-14.08,34.39-23.87v-24h-34.39v47.87Z"/>
  <ellipse class="cls-2" cx="311" cy="112.76" rx="84.67" ry="29.67"/>
</svg>